<?xml version="1.0" standalone="no"?>
<!DOCTYPE svg PUBLIC "-//W3C//DTD SVG 20010904//EN"
 "http://www.w3.org/TR/2001/REC-SVG-20010904/DTD/svg10.dtd">
<svg version="1.0" xmlns="http://www.w3.org/2000/svg"
 width="400.000000pt" height="400.000000pt" viewBox="0 0 400.000000 400.000000"
 preserveAspectRatio="xMidYMid meet">
<metadata>
Created by potrace 1.15, written by Peter Selinger 2001-2017
</metadata>
<g transform="translate(0.000000,400.000000) scale(0.100000,-0.100000)"
fill="#000000" stroke="none">
<path d="M750 3625 l0 -125 -125 0 -125 0 0 -500 0 -500 -125 0 -125 0 0 -625
0 -625 125 0 125 0 0 -125 0 -125 250 0 250 0 0 -125 0 -125 250 0 250 0 0
-125 0 -125 500 0 500 0 0 125 0 125 250 0 250 0 0 125 0 125 250 0 250 0 0
125 0 125 125 0 125 0 0 625 0 625 -125 0 -125 0 0 500 0 500 -125 0 -125 0 0
125 0 125 -125 0 -125 0 0 -125 0 -125 -125 0 -125 0 0 -125 0 -125 -125 0
-125 0 0 -125 0 -125 -500 0 -500 0 0 125 0 125 -125 0 -125 0 0 125 0 125
-125 0 -125 0 0 125 0 125 -125 0 -125 0 0 -125z m250 -250 l0 -125 125 0 125
0 0 -125 0 -125 -40 0 -40 0 0 -85 0 -85 -85 0 -85 0 0 -40 0 -40 -125 0 -125
0 0 375 0 375 125 0 125 0 0 -125z m2250 -250 l0 -375 -125 0 -125 0 0 40 0
40 -85 0 -85 0 0 85 0 85 -40 0 -40 0 0 125 0 125 125 0 125 0 0 125 0 125
125 0 125 0 0 -375z m-1500 -750 l0 -125 -125 0 -125 0 0 -120 0 -121 -117 3
-118 3 0 235 0 235 120 5 c66 4 175 7 243 8 l122 2 0 -125z m983 106 c4 -4 6
-111 5 -237 l-3 -229 -117 -3 -118 -3 0 121 0 120 -125 0 -125 0 0 126 0 127
238 -8 c130 -4 240 -10 245 -14z m-1893 -336 l0 -125 40 0 40 0 0 -125 0 -125
45 0 45 0 0 -125 0 -125 -125 0 -125 0 0 125 0 125 -45 0 -45 0 0 125 0 125
-40 0 -40 0 0 125 0 125 125 0 125 0 0 -125z m2580 0 l0 -125 -45 0 -45 0 0
-125 0 -125 -40 0 -40 0 0 -125 0 -125 -125 0 -125 0 0 125 0 125 40 0 40 0 0
125 0 125 40 0 40 0 0 125 0 125 130 0 130 0 0 -125z m-1040 -270 l0 -125 60
0 60 0 0 -125 0 -125 70 0 70 0 0 -125 0 -125 55 0 55 0 0 -125 0 -125 -125 0
-125 0 0 -125 0 -125 -500 0 -500 0 0 125 0 125 -125 0 -125 0 0 125 0 125 70
0 70 0 0 125 0 125 55 0 55 0 0 125 0 125 60 0 60 0 0 125 0 125 380 0 380 0
0 -125z"/>
<path d="M1750 1625 l0 -125 250 0 250 0 0 125 0 125 -250 0 -250 0 0 -125z"/>
</g>
</svg>
